<svg width="3010" height="995" viewBox="0 0 3010 995" fill="none" xmlns="http://www.w3.org/2000/svg"><title>ExpLabs</title><path fill-rule="evenodd" clip-rule="evenodd" d="M500 895c217.676 0 394.763-173.691 400.088-389.971.136-5.521-4.354-10.029-9.876-10.029h-80.045c-5.523 0-9.983 4.499-10.164 10.019C794.715 666.066 662.426 795 500.008 795c-14.137 0-28.046-.977-41.662-2.867-4.838-.671-8.364-4.859-8.364-9.744V655c0-5.523-4.478-10-10-10h-80.053c-5.523 0-10 4.477-10 10v99.861c0 .002-.003.003-.004.002-.002-.001-.004.001-.004.003v104.317c0 4.074 2.467 7.752 6.27 9.216C400.822 885.581 449.311 895 500 895zM99.911 484.971c-.136 5.521 4.354 10.029 9.877 10.029h80.061c5.522 0 9.983-4.499 10.164-10.019C205.3 323.934 337.589 195 500.008 195c14.137 0 28.045.977 41.662 2.866 4.838.672 8.365 4.86 8.365 9.745V335c0 5.523 4.477 10 10 10h80.052c5.523 0 10-4.477 10-10V130.821c0-4.075-2.467-7.753-6.27-9.217C599.184 104.42 550.692 95 500 95 282.324 95 105.236 268.691 99.911 484.971zM510.02 744.803c-5.519.218-10.012-4.28-10.012-9.803v-80c0-5.523 4.491-9.965 10.002-10.328 74.916-4.927 134.817-64.795 139.749-139.67.363-5.511 4.806-10.002 10.328-10.002h80.054c5.523 0 10.02 4.492 9.803 10.011-5.127 130.111-109.744 234.671-239.924 239.792zM259.875 495c-5.523 0-10.021-4.492-9.804-10.011 5.127-130.111 109.744-234.671 239.926-239.792 5.518-.218 10.01 4.28 10.01 9.803v80c0 5.523-4.491 9.965-10.002 10.328-74.916 4.927-134.817 64.795-139.749 139.67-.363 5.511-4.806 10.002-10.329 10.002h-80.052zm240.132 100c55.258 0 100.053-44.771 100.053-100s-44.795-100-100.053-100c-55.257 0-100.053 44.771-100.053 100s44.796 100 100.053 100zm365.294-263.648c2.906 6.47-1.92 13.648-9.013 13.648H710.113c-5.523 0-10-4.477-10-10V165.846c0-7.701 8.32-12.474 14.814-8.334 65.618 41.83 118.22 102.252 150.374 173.84zm-565.4 492.802c0 7.701-8.319 12.474-14.813 8.335-65.619-41.83-118.221-102.253-150.375-173.841-2.906-6.47 1.92-13.648 9.013-13.648H289.901c5.523 0 10 4.477 10 10v169.154z" fill="url(#b)" filter="url(#a)"/><path d="M1148.93 671.56c-24.58 0-46.08-5.461-64.51-16.384-18.44-10.923-27.65-33.28-27.65-67.072V376.648c0-30.72 8.36-52.736 25.09-66.048 17.06-13.653 37.54-20.48 61.44-20.48 52.22 0 106.83 2.219 163.84 6.656v63.488h-141.32c-22.18 0-33.28 10.411-33.28 31.232v54.784l150.02 4.096v59.904l-150.02 4.096V566.6c0 22.528 10.59 33.792 31.75 33.792h142.85v63.488c-45.4 5.12-98.14 7.68-158.21 7.68zm360.28-135.68L1602.4 669h-76.8l-60.42-86.528L1410.91 669h-76.8l93.18-141.312-93.18-133.632h76.29l60.92 87.04 54.28-87.04h76.8l-93.19 141.824zm126.47-141.824h63.49l12.29 26.112c25.6-20.139 51.03-30.208 76.29-30.208 33.11 0 57.51 12.288 73.21 36.864 16.05 24.576 24.07 59.563 24.07 104.96 0 47.104-7.34 82.432-22.02 105.984-14.33 23.211-39.42 34.816-75.26 34.816-12.97 0-26.28-1.536-39.94-4.608-13.31-3.072-25.43-7.509-36.35-13.312v135.68h-75.78V394.056zm127.49 216.064c14 0 25.09-5.632 33.28-16.896 8.54-11.605 12.8-32.085 12.8-61.44 0-29.355-4.09-50.176-12.29-62.464-8.19-12.288-19.45-18.432-33.79-18.432-17.06 0-34.3 5.12-51.71 15.36v130.56c6.49 4.096 14.34 7.339 23.55 9.728 9.56 2.389 18.95 3.584 28.16 3.584zM2021.2 669c-23.89 0-42.5-5.632-55.81-16.896-13.31-11.605-19.97-31.232-19.97-58.88V292.168h40.96v295.424c0 16.725 3.93 28.331 11.78 34.816 7.85 6.144 18.43 9.216 31.74 9.216h135.17V669H2021.2zm249.46 3.072c-20.48 0-37.21-6.144-50.18-18.432-12.63-12.288-18.94-29.013-18.94-50.176v-19.456c0-22.187 7.17-39.765 21.5-52.736 14.68-12.971 36.01-19.456 64-19.456h92.68v-33.792c0-18.432-5.12-32.085-15.36-40.96-9.9-8.875-28.33-13.312-55.3-13.312h-84.99v-24.064c32.08-5.461 65.36-8.192 99.84-8.192 33.11 0 57.34 6.827 72.7 20.48 15.7 13.312 23.55 34.645 23.55 64V669h-31.23l-7.68-31.232c-2.39 2.048-9.9 5.973-22.53 11.776-12.28 5.803-26.45 11.093-42.49 15.872-16.04 4.437-31.23 6.656-45.57 6.656zm17.92-30.208c9.22 0 20.48-1.707 33.79-5.12 13.31-3.413 25.26-6.997 35.84-10.752 10.92-3.755 18.09-6.315 21.51-7.68v-86.016l-83.46 3.584c-18.77.683-32.6 5.291-41.47 13.824-8.54 8.533-12.8 20.139-12.8 34.816v12.288c0 15.701 4.44 27.136 13.31 34.304 9.22 7.168 20.31 10.752 33.28 10.752zM2628 672.072c-31.41 0-61.79-10.24-91.14-30.72L2529.18 669h-32.77V278.344h40.45V420.68c14.34-8.192 29.53-15.019 45.57-20.48 16.38-5.461 31.06-8.192 44.03-8.192 33.45 0 58.03 10.923 73.73 32.768 16.04 21.845 24.06 58.368 24.06 109.568 0 91.819-32.08 137.728-96.25 137.728zm-12.8-33.792c22.52 0 39.59-8.704 51.2-26.112 11.6-17.749 17.4-44.203 17.4-79.36 0-28.672-2.9-50.688-8.7-66.048-5.46-15.701-13.14-26.453-23.04-32.256-9.9-5.803-22.19-8.704-36.86-8.704-14.34 0-27.48 1.877-39.43 5.632-11.94 3.755-24.92 9.557-38.91 17.408v167.424c12.63 6.827 25.09 12.288 37.38 16.384 12.63 3.755 26.28 5.632 40.96 5.632zm271.42 33.792c-15.36 0-34.65-.683-57.86-2.048s-39.08-3.072-47.61-5.12v-24.576h112.13c19.11 0 33.11-2.56 41.98-7.68 8.87-5.12 13.31-15.872 13.31-32.256v-12.288c0-25.6-16.55-38.4-49.66-38.4h-38.4c-26.28 0-46.59-5.12-60.93-15.36-13.99-10.24-20.99-27.648-20.99-52.224v-14.336c0-25.941 7.51-44.885 22.53-56.832 15.36-11.947 39.93-17.92 73.72-17.92 14.68 0 31.92.853 51.72 2.56 20.13 1.365 35.84 3.072 47.1 5.12v24.576h-105.47c-18.43 0-32.09 3.072-40.96 9.216-8.88 6.144-13.31 17.237-13.31 33.28v11.264c0 14.677 4.26 24.576 12.8 29.696 8.87 4.779 22.35 7.168 40.44 7.168h38.92c24.91 0 44.2 5.803 57.85 17.408 13.66 11.605 20.48 28.331 20.48 50.176v18.944c0 25.941-8.36 44.032-25.09 54.272-16.72 10.24-40.96 15.36-72.7 15.36z" fill="url(#c)"/><defs><filter id="a" x="-20.092" y="0" width="1040.18" height="1040" filterUnits="userSpaceOnUse" color-interpolation-filters="sRGB"><feFlood flood-opacity="0" result="BackgroundImageFix"/><feColorMatrix in="SourceAlpha" values="0 0 0 0 0 0 0 0 0 0 0 0 0 0 0 0 0 0 127 0"/><feOffset dy="25"/><feGaussianBlur stdDeviation="60"/><feColorMatrix values="0 0 0 0 0 0 0 0 0 0 0 0 0 0 0 0 0 0 0.15 0"/><feBlend in2="BackgroundImageFix" result="effect1_dropShadow"/><feBlend in="SourceGraphic" in2="effect1_dropShadow" result="shape"/></filter><linearGradient id="b" x1="100" y1="95" x2="900" y2="895" gradientUnits="userSpaceOnUse"><stop stop-color="#FDFBFB"/><stop offset="1" stop-color="#EBEDEE"/></linearGradient><linearGradient id="c" x1="2017.91" y1="156" x2="2017.91" y2="837" gradientUnits="userSpaceOnUse"><stop stop-color="#FDFBFB"/><stop offset="1" stop-color="#EBEDEE"/></linearGradient></defs></svg>